<svg width="266" height="39" viewBox="0 0 266 39" fill="none" xmlns="http://www.w3.org/2000/svg">
<g filter="url(#filter0_d_2_2)">
<path d="M26.25 22.9766C25.8984 25.9844 24.7852 28.3086 22.9102 29.9492C21.0482 31.5768 18.5677 32.3906 15.4688 32.3906C12.1094 32.3906 9.41406 31.1862 7.38281 28.7773C5.36458 26.3685 4.35547 23.1458 4.35547 19.1094V16.375C4.35547 13.7318 4.82422 11.4076 5.76172 9.40234C6.71224 7.39714 8.05339 5.86068 9.78516 4.79297C11.5169 3.71224 13.5221 3.17188 15.8008 3.17188C18.8216 3.17188 21.2435 4.01823 23.0664 5.71094C24.8893 7.39062 25.9505 9.72135 26.25 12.7031H22.4805C22.1549 10.4375 21.4453 8.79688 20.3516 7.78125C19.2708 6.76562 17.7539 6.25781 15.8008 6.25781C13.4049 6.25781 11.5234 7.14323 10.1562 8.91406C8.80208 10.6849 8.125 13.2044 8.125 16.4727V19.2266C8.125 22.3125 8.76953 24.7669 10.0586 26.5898C11.3477 28.4128 13.151 29.3242 15.4688 29.3242C17.5521 29.3242 19.1471 28.8555 20.2539 27.918C21.3737 26.9674 22.1159 25.3203 22.4805 22.9766H26.25ZM34.4336 13.4258C36.0352 11.4596 38.1185 10.4766 40.6836 10.4766C45.1497 10.4766 47.4023 12.9961 47.4414 18.0352V32H43.8281V18.0156C43.8151 16.4922 43.4635 15.3659 42.7734 14.6367C42.0964 13.9076 41.0352 13.543 39.5898 13.543C38.418 13.543 37.3893 13.8555 36.5039 14.4805C35.6185 15.1055 34.9284 15.9258 34.4336 16.9414V32H30.8203V2H34.4336V13.4258ZM63.0664 14.1094C62.5195 14.0182 61.9271 13.9727 61.2891 13.9727C58.9193 13.9727 57.3112 14.9818 56.4648 17V32H52.8516V10.8672H56.3672L56.4258 13.3086C57.6107 11.4206 59.2904 10.4766 61.4648 10.4766C62.168 10.4766 62.7018 10.5677 63.0664 10.75V14.1094ZM70.332 32H66.7188V10.8672H70.332V32ZM66.4258 5.26172C66.4258 4.67578 66.6016 4.18099 66.9531 3.77734C67.3177 3.3737 67.8516 3.17188 68.5547 3.17188C69.2578 3.17188 69.7917 3.3737 70.1562 3.77734C70.5208 4.18099 70.7031 4.67578 70.7031 5.26172C70.7031 5.84766 70.5208 6.33594 70.1562 6.72656C69.7917 7.11719 69.2578 7.3125 68.5547 7.3125C67.8516 7.3125 67.3177 7.11719 66.9531 6.72656C66.6016 6.33594 66.4258 5.84766 66.4258 5.26172ZM88.4375 26.3945C88.4375 25.418 88.0664 24.6628 87.3242 24.1289C86.5951 23.582 85.3125 23.1133 83.4766 22.7227C81.6536 22.332 80.2018 21.8633 79.1211 21.3164C78.0534 20.7695 77.2591 20.1185 76.7383 19.3633C76.2305 18.6081 75.9766 17.7096 75.9766 16.668C75.9766 14.9362 76.7057 13.4714 78.1641 12.2734C79.6354 11.0755 81.5104 10.4766 83.7891 10.4766C86.1849 10.4766 88.125 11.0951 89.6094 12.332C91.1068 13.569 91.8555 15.151 91.8555 17.0781H88.2227C88.2227 16.0885 87.7995 15.2357 86.9531 14.5195C86.1198 13.8034 85.0651 13.4453 83.7891 13.4453C82.474 13.4453 81.4453 13.7318 80.7031 14.3047C79.9609 14.8776 79.5898 15.6263 79.5898 16.5508C79.5898 17.4232 79.9349 18.0807 80.625 18.5234C81.3151 18.9661 82.5586 19.3893 84.3555 19.793C86.1654 20.1966 87.6302 20.6784 88.75 21.2383C89.8698 21.7982 90.6966 22.4753 91.2305 23.2695C91.7773 24.0508 92.0508 25.0078 92.0508 26.1406C92.0508 28.0286 91.2956 29.5456 89.7852 30.6914C88.2747 31.8242 86.3151 32.3906 83.9062 32.3906C82.2135 32.3906 80.7161 32.0911 79.4141 31.4922C78.112 30.8932 77.0898 30.0599 76.3477 28.9922C75.6185 27.9115 75.2539 26.7461 75.2539 25.4961H78.8672C78.9323 26.707 79.4141 27.6706 80.3125 28.3867C81.224 29.0898 82.4219 29.4414 83.9062 29.4414C85.2734 29.4414 86.3672 29.168 87.1875 28.6211C88.0208 28.0612 88.4375 27.319 88.4375 26.3945Z" fill="#102A42"/>
<path d="M97.3242 32V3.5625H105.352C107.826 3.5625 110.013 4.10938 111.914 5.20312C113.815 6.29688 115.28 7.85286 116.309 9.87109C117.35 11.8893 117.878 14.207 117.891 16.8242V18.6406C117.891 21.3229 117.37 23.6732 116.328 25.6914C115.299 27.7096 113.822 29.2591 111.895 30.3398C109.98 31.4206 107.747 31.974 105.195 32H97.3242ZM101.074 6.64844V28.9336H105.02C107.91 28.9336 110.156 28.0352 111.758 26.2383C113.372 24.4414 114.18 21.8828 114.18 18.5625V16.9023C114.18 13.6732 113.418 11.1667 111.895 9.38281C110.384 7.58594 108.236 6.67448 105.449 6.64844H101.074ZM131.777 32.3906C128.913 32.3906 126.582 31.4531 124.785 29.5781C122.988 27.6901 122.09 25.1706 122.09 22.0195V21.3555C122.09 19.2591 122.487 17.3906 123.281 15.75C124.089 14.0964 125.208 12.8073 126.641 11.8828C128.086 10.9453 129.648 10.4766 131.328 10.4766C134.076 10.4766 136.211 11.3815 137.734 13.1914C139.258 15.0013 140.02 17.5924 140.02 20.9648V22.4688H125.703C125.755 24.5521 126.361 26.2383 127.52 27.5273C128.691 28.8034 130.176 29.4414 131.973 29.4414C133.249 29.4414 134.329 29.181 135.215 28.6602C136.1 28.1393 136.875 27.4492 137.539 26.5898L139.746 28.3086C137.975 31.0299 135.319 32.3906 131.777 32.3906ZM131.328 13.4453C129.87 13.4453 128.646 13.9792 127.656 15.0469C126.667 16.1016 126.055 17.5859 125.82 19.5H136.406V19.2266C136.302 17.3906 135.807 15.9714 134.922 14.9688C134.036 13.9531 132.839 13.4453 131.328 13.4453ZM165.703 22.9766C165.352 25.9844 164.238 28.3086 162.363 29.9492C160.501 31.5768 158.021 32.3906 154.922 32.3906C151.562 32.3906 148.867 31.1862 146.836 28.7773C144.818 26.3685 143.809 23.1458 143.809 19.1094V16.375C143.809 13.7318 144.277 11.4076 145.215 9.40234C146.165 7.39714 147.507 5.86068 149.238 4.79297C150.97 3.71224 152.975 3.17188 155.254 3.17188C158.275 3.17188 160.697 4.01823 162.52 5.71094C164.342 7.39062 165.404 9.72135 165.703 12.7031H161.934C161.608 10.4375 160.898 8.79688 159.805 7.78125C158.724 6.76562 157.207 6.25781 155.254 6.25781C152.858 6.25781 150.977 7.14323 149.609 8.91406C148.255 10.6849 147.578 13.2044 147.578 16.4727V19.2266C147.578 22.3125 148.223 24.7669 149.512 26.5898C150.801 28.4128 152.604 29.3242 154.922 29.3242C157.005 29.3242 158.6 28.8555 159.707 27.918C160.827 26.9674 161.569 25.3203 161.934 22.9766H165.703ZM174.199 32H170.586V2H174.199V32ZM188.77 32.3906C185.905 32.3906 183.574 31.4531 181.777 29.5781C179.98 27.6901 179.082 25.1706 179.082 22.0195V21.3555C179.082 19.2591 179.479 17.3906 180.273 15.75C181.081 14.0964 182.201 12.8073 183.633 11.8828C185.078 10.9453 186.641 10.4766 188.32 10.4766C191.068 10.4766 193.203 11.3815 194.727 13.1914C196.25 15.0013 197.012 17.5924 197.012 20.9648V22.4688H182.695C182.747 24.5521 183.353 26.2383 184.512 27.5273C185.684 28.8034 187.168 29.4414 188.965 29.4414C190.241 29.4414 191.322 29.181 192.207 28.6602C193.092 28.1393 193.867 27.4492 194.531 26.5898L196.738 28.3086C194.967 31.0299 192.311 32.3906 188.77 32.3906ZM188.32 13.4453C186.862 13.4453 185.638 13.9792 184.648 15.0469C183.659 16.1016 183.047 17.5859 182.812 19.5H193.398V19.2266C193.294 17.3906 192.799 15.9714 191.914 14.9688C191.029 13.9531 189.831 13.4453 188.32 13.4453ZM209.98 32.3906C207.116 32.3906 204.785 31.4531 202.988 29.5781C201.191 27.6901 200.293 25.1706 200.293 22.0195V21.3555C200.293 19.2591 200.69 17.3906 201.484 15.75C202.292 14.0964 203.411 12.8073 204.844 11.8828C206.289 10.9453 207.852 10.4766 209.531 10.4766C212.279 10.4766 214.414 11.3815 215.938 13.1914C217.461 15.0013 218.223 17.5924 218.223 20.9648V22.4688H203.906C203.958 24.5521 204.564 26.2383 205.723 27.5273C206.895 28.8034 208.379 29.4414 210.176 29.4414C211.452 29.4414 212.533 29.181 213.418 28.6602C214.303 28.1393 215.078 27.4492 215.742 26.5898L217.949 28.3086C216.178 31.0299 213.522 32.3906 209.98 32.3906ZM209.531 13.4453C208.073 13.4453 206.849 13.9792 205.859 15.0469C204.87 16.1016 204.258 17.5859 204.023 19.5H214.609V19.2266C214.505 17.3906 214.01 15.9714 213.125 14.9688C212.24 13.9531 211.042 13.4453 209.531 13.4453ZM225.84 10.8672L225.957 13.5234C227.572 11.4922 229.681 10.4766 232.285 10.4766C236.751 10.4766 239.004 12.9961 239.043 18.0352V32H235.43V18.0156C235.417 16.4922 235.065 15.3659 234.375 14.6367C233.698 13.9076 232.637 13.543 231.191 13.543C230.02 13.543 228.991 13.8555 228.105 14.4805C227.22 15.1055 226.53 15.9258 226.035 16.9414V32H222.422V10.8672H225.84ZM253.262 32.3906C250.397 32.3906 248.066 31.4531 246.27 29.5781C244.473 27.6901 243.574 25.1706 243.574 22.0195V21.3555C243.574 19.2591 243.971 17.3906 244.766 15.75C245.573 14.0964 246.693 12.8073 248.125 11.8828C249.57 10.9453 251.133 10.4766 252.812 10.4766C255.56 10.4766 257.695 11.3815 259.219 13.1914C260.742 15.0013 261.504 17.5924 261.504 20.9648V22.4688H247.188C247.24 24.5521 247.845 26.2383 249.004 27.5273C250.176 28.8034 251.66 29.4414 253.457 29.4414C254.733 29.4414 255.814 29.181 256.699 28.6602C257.585 28.1393 258.359 27.4492 259.023 26.5898L261.23 28.3086C259.46 31.0299 256.803 32.3906 253.262 32.3906ZM252.812 13.4453C251.354 13.4453 250.13 13.9792 249.141 15.0469C248.151 16.1016 247.539 17.5859 247.305 19.5H257.891V19.2266C257.786 17.3906 257.292 15.9714 256.406 14.9688C255.521 13.9531 254.323 13.4453 252.812 13.4453Z" fill="#2CAEBA"/>
</g>
<defs>
<filter id="filter0_d_2_2" x="0.355469" y="0" width="265.148" height="38.3906" filterUnits="userSpaceOnUse" color-interpolation-filters="sRGB">
<feFlood flood-opacity="0" result="BackgroundImageFix"/>
<feColorMatrix in="SourceAlpha" type="matrix" values="0 0 0 0 0 0 0 0 0 0 0 0 0 0 0 0 0 0 127 0" result="hardAlpha"/>
<feOffset dy="2"/>
<feGaussianBlur stdDeviation="2"/>
<feComposite in2="hardAlpha" operator="out"/>
<feColorMatrix type="matrix" values="0 0 0 0 0 0 0 0 0 0 0 0 0 0 0 0 0 0 0.25 0"/>
<feBlend mode="normal" in2="BackgroundImageFix" result="effect1_dropShadow_2_2"/>
<feBlend mode="normal" in="SourceGraphic" in2="effect1_dropShadow_2_2" result="shape"/>
</filter>
</defs>
</svg>
